# xmcd
#
# Track frame offsets:
#	150
#	17596
#	39051
#	59362
#	81007
#	100668
#	120279
#	140487
#	156773
#	180022
#	200737
#	220139
#	241916
#	260712
#	282573
#
# Disc length: 4016 seconds
#
# Revision: 3
# Processed by: cddbd v1.5.2PL0 Copyright (c) Steve Scherf et al.
# Submitted via: EZCDAudioConverter 7.1.7.1
#
DISCID=c30fae0f
DTITLE=群星 - 十五首靓绝金曲 Dts-Es6.1
DYEAR=2011
DGENRE=
TTITLE0=爱情海
TTITLE1=做你的爱人
TTITLE2=姑娘我爱你
TTITLE3=烟花三月
TTITLE4=在我心里从此有个你
TTITLE5=爱不在就放手
TTITLE6=藕断丝连
TTITLE7=爱情买卖
TTITLE8=梦中的唐古拉
TTITLE9=母亲
TTITLE10=赶路的月光
TTITLE11=爱情会不会永久
TTITLE12=寂寞才说爱
TTITLE13=无可救药
TTITLE14=遇上你是我的缘
EXTD=
EXTT0=
EXTT1=
EXTT2=
EXTT3=
EXTT4=
EXTT5=
EXTT6=
EXTT7=
EXTT8=
EXTT9=
EXTT10=
EXTT11=
EXTT12=
EXTT13=
EXTT14=
PLAYORDER=
